<svg xmlns="http://www.w3.org/2000/svg" viewBox="0 0 1200 1200"><title>3760087_76313 [Convertido]</title><g style="isolation:isolate"><g id="Object"><g style="mix-blend-mode:multiply"><path d="M964.14,23.8H182.55C81.73,23.8,0,85.51,0,161.64v900.52C0,1138.29,81.73,1200,182.55,1200H964.14c100.82,0,182.55-61.71,182.55-137.84V161.64C1146.69,85.51,1065,23.8,964.14,23.8Z" style="fill:#fff"/><path d="M965.69,22.92H184.11C83.29,22.92,1.56,84.63,1.56,160.76v900.52c0,76.13,81.73,137.84,182.55,137.84H965.69c100.82,0,182.55-61.71,182.55-137.84V160.76C1148.24,84.63,1066.51,22.92,965.69,22.92Z" style="fill:#fcfcfc"/><path d="M967.25,22H185.66C84.84,22,3.11,83.75,3.11,159.87V1060.4c0,76.13,81.73,137.84,182.55,137.84H967.25c100.82,0,182.55-61.71,182.55-137.84V159.87C1149.8,83.75,1068.07,22,967.25,22Z" style="fill:#fafafa"/><path d="M968.81,21.16H187.22C86.4,21.16,4.67,82.87,4.67,159v900.53c0,76.12,81.73,137.84,182.55,137.84H968.81c100.82,0,182.55-61.72,182.55-137.84V159C1151.36,82.87,1069.63,21.16,968.81,21.16Z" style="fill:#f7f7f7"/><path d="M970.36,20.28H188.77C88,20.28,6.22,82,6.22,158.11v900.53c0,76.12,81.73,137.83,182.55,137.83H970.36c100.82,0,182.55-61.71,182.55-137.83V158.11C1152.91,82,1071.18,20.28,970.36,20.28Z" style="fill:#f4f4f5"/><path d="M971.92,19.39H190.33C89.51,19.39,7.78,81.1,7.78,157.23v900.53c0,76.12,81.73,137.83,182.55,137.83H971.92c100.82,0,182.55-61.71,182.55-137.83V157.23C1154.47,81.1,1072.74,19.39,971.92,19.39Z" style="fill:#f2f2f2"/><path d="M973.47,18.51H191.89C91.07,18.51,9.34,80.22,9.34,156.35v900.52c0,76.13,81.73,137.84,182.55,137.84H973.47c100.82,0,182.55-61.71,182.55-137.84V156.35C1156,80.22,1074.29,18.51,973.47,18.51Z" style="fill:#efeff0"/><path d="M975,17.63H193.44C92.62,17.63,10.89,79.34,10.89,155.47V1056c0,76.13,81.73,137.84,182.55,137.84H975c100.82,0,182.55-61.71,182.55-137.84V155.47C1157.58,79.34,1075.85,17.63,975,17.63Z" style="fill:#eceded"/><path d="M976.59,16.75H195C94.18,16.75,12.45,78.46,12.45,154.59v900.52C12.45,1131.24,94.18,1193,195,1193H976.59c100.82,0,182.55-61.71,182.55-137.84V154.59C1159.14,78.46,1077.41,16.75,976.59,16.75Z" style="fill:#eaeaeb"/><path d="M978.14,15.87H196.55C95.73,15.87,14,77.58,14,153.7v900.53c0,76.12,81.73,137.84,182.55,137.84H978.14c100.82,0,182.55-61.72,182.55-137.84V153.7C1160.69,77.58,1079,15.87,978.14,15.87Z" style="fill:#e7e7e8"/><path d="M979.7,15H198.11C97.29,15,15.56,76.7,15.56,152.82v900.53c0,76.12,81.73,137.83,182.55,137.83H979.7c100.82,0,182.55-61.71,182.55-137.83V152.82C1162.25,76.7,1080.52,15,979.7,15Z" style="fill:#e4e5e6"/><path d="M981.25,14.1H199.67C98.85,14.1,17.12,75.82,17.12,151.94v900.53c0,76.12,81.73,137.83,182.55,137.83H981.25c100.82,0,182.55-61.71,182.55-137.83V151.94C1163.8,75.82,1082.07,14.1,981.25,14.1Z" style="fill:#e2e2e3"/><path d="M982.81,13.22H201.22C100.4,13.22,18.67,74.93,18.67,151.06v900.53c0,76.12,81.73,137.83,182.55,137.83H982.81c100.82,0,182.55-61.71,182.55-137.83V151.06C1165.36,74.93,1083.63,13.22,982.81,13.22Z" style="fill:#dfdfe1"/><path d="M984.37,12.34H202.78C102,12.34,20.23,74.05,20.23,150.18V1050.7c0,76.13,81.73,137.84,182.55,137.84H984.37c100.82,0,182.55-61.71,182.55-137.84V150.18C1166.92,74.05,1085.19,12.34,984.37,12.34Z" style="fill:#dcddde"/><path d="M985.92,11.46H204.33C103.52,11.46,21.78,73.17,21.78,149.3v900.52c0,76.13,81.74,137.84,182.55,137.84H985.92c100.82,0,182.55-61.71,182.55-137.84V149.3C1168.47,73.17,1086.74,11.46,985.92,11.46Z" style="fill:#dadadc"/><path d="M987.48,10.58H205.89c-100.82,0-182.55,61.71-182.55,137.83v900.53c0,76.13,81.73,137.84,182.55,137.84H987.48c100.82,0,182.55-61.71,182.55-137.84V148.41C1170,72.29,1088.3,10.58,987.48,10.58Z" style="fill:#d7d8d9"/><path d="M989,9.7H207.45C106.63,9.7,24.9,71.41,24.9,147.53v900.53c0,76.12,81.73,137.83,182.55,137.83H989c100.83,0,182.55-61.71,182.55-137.83V147.53C1171.58,71.41,1089.86,9.7,989,9.7Z" style="fill:#d4d5d7"/><path d="M990.59,8.82H209C108.18,8.82,26.45,70.53,26.45,146.65v900.53C26.45,1123.3,108.18,1185,209,1185H990.59c100.82,0,182.55-61.71,182.55-137.83V146.65C1173.14,70.53,1091.41,8.82,990.59,8.82Z" style="fill:#d2d2d4"/><path d="M992.15,7.93H210.56C109.74,7.93,28,69.64,28,145.77V1046.3c0,76.12,81.73,137.83,182.55,137.83H992.15c100.82,0,182.55-61.71,182.55-137.83V145.77C1174.7,69.64,1093,7.93,992.15,7.93Z" style="fill:#cfd0d2"/><path d="M993.7,7.05H212.12C111.3,7.05,29.56,68.76,29.56,144.89v900.52c0,76.13,81.74,137.84,182.56,137.84H993.7c100.82,0,182.55-61.71,182.55-137.84V144.89C1176.25,68.76,1094.52,7.05,993.7,7.05Z" style="fill:#cccdcf"/><path d="M995.26,6.17H213.67C112.85,6.17,31.12,67.88,31.12,144v900.52c0,76.13,81.73,137.84,182.55,137.84H995.26c100.82,0,182.55-61.71,182.55-137.84V144C1177.81,67.88,1096.08,6.17,995.26,6.17Z" style="fill:#cacacd"/><path d="M996.81,5.29H215.23C114.41,5.29,32.68,67,32.68,143.13v900.52c0,76.13,81.73,137.84,182.55,137.84H996.81c100.83,0,182.55-61.71,182.55-137.84V143.13C1179.36,67,1097.64,5.29,996.81,5.29Z" style="fill:#c7c8ca"/><path d="M998.37,4.41H216.78C116,4.41,34.23,66.12,34.23,142.24v900.53c0,76.12,81.73,137.84,182.55,137.84H998.37c100.82,0,182.55-61.72,182.55-137.84V142.24C1180.92,66.12,1099.19,4.41,998.37,4.41Z" style="fill:#c4c5c8"/><path d="M999.93,3.53H218.34C117.52,3.53,35.79,65.24,35.79,141.36v900.53c0,76.12,81.73,137.83,182.55,137.83H999.93c100.82,0,182.55-61.71,182.55-137.83V141.36C1182.48,65.24,1100.75,3.53,999.93,3.53Z" style="fill:#c2c3c5"/><path d="M1001.48,2.64H219.9C119.08,2.64,37.34,64.36,37.34,140.48V1041c0,76.12,81.74,137.83,182.56,137.83h781.58c100.82,0,182.55-61.71,182.55-137.83V140.48C1184,64.36,1102.3,2.64,1001.48,2.64Z" style="fill:#bfc0c3"/><path d="M1003,1.76H221.45C120.63,1.76,38.9,63.47,38.9,139.6v900.53c0,76.12,81.73,137.83,182.55,137.83H1003c100.82,0,182.55-61.71,182.55-137.83V139.6C1185.59,63.47,1103.86,1.76,1003,1.76Z" style="fill:#bcbdc0"/><path d="M1004.59.88H223C122.19.88,40.46,62.59,40.46,138.72v900.52c0,76.13,81.73,137.84,182.55,137.84h781.58c100.83,0,182.55-61.71,182.55-137.84V138.72C1187.14,62.59,1105.42.88,1004.59.88Z" style="fill:#babbbe"/><path d="M1006.15,0H224.56C123.74,0,42,61.71,42,137.84v900.52c0,76.13,81.73,137.84,182.55,137.84h781.59c100.82,0,182.55-61.71,182.55-137.84V137.84C1188.7,61.71,1107,0,1006.15,0Z" style="fill:#b7b8bb"/></g><path d="M227,1164.73h788.8c101.75,0,184.23-61.11,184.23-136.49V136.49C1200,61.11,1117.52,0,1015.77,0H227C125.23,0,42.74,61.11,42.74,136.49v891.75C42.74,1103.62,125.23,1164.73,227,1164.73Z" style="fill:#ededee"/><path d="M1052.89,381.07h-16.33v-3h16.33Zm-32.67,0h-16.33v-3h16.33Zm-32.67,0H971.22v-3h16.33Zm-32.67,0H938.55v-3h16.33Zm-32.67,0H905.88v-3h16.33Zm-32.67,0H873.21v-3h16.33Zm-32.67,0H840.53v-3h16.34Zm-32.67,0H807.86v-3H824.2Zm-32.67,0H775.19v-3h16.34Zm-32.67,0H742.52v-3h16.34Zm-32.67,0H709.85v-3h16.34Zm-32.67,0H677.18v-3h16.34Zm-32.67,0H644.51v-3h16.34Zm-32.68,0H611.84v-3h16.33Zm-32.66,0H579.17v-3h16.34Zm-32.67,0H546.5v-3h16.34Zm-32.68,0H513.83v-3h16.33Zm-32.67,0H481.16v-3h16.33Zm-32.67,0H448.49v-3h16.33Zm-32.67,0H415.81v-3h16.34Zm-32.67,0H383.15v-3h16.33Zm-32.67,0H350.48v-3h16.33Zm-32.67,0H317.8v-3h16.34Zm-32.67,0H285.13v-3h16.34Zm-32.67,0H252.46v-3H268.8Zm-32.67,0H219.79v-3h16.34Zm-32.67,0H187.12v-3h16.34Z" style="fill:#999"/><path d="M1052.89,540.34h-16.33v-3h16.33Zm-32.67,0h-16.33v-3h16.33Zm-32.67,0H971.22v-3h16.33Zm-32.67,0H938.55v-3h16.33Zm-32.67,0H905.88v-3h16.33Zm-32.67,0H873.21v-3h16.33Zm-32.67,0H840.53v-3h16.34Zm-32.67,0H807.86v-3H824.2Zm-32.67,0H775.19v-3h16.34Zm-32.67,0H742.52v-3h16.34Zm-32.67,0H709.85v-3h16.34Zm-32.67,0H677.18v-3h16.34Zm-32.67,0H644.51v-3h16.34Zm-32.68,0H611.84v-3h16.33Zm-32.66,0H579.17v-3h16.34Zm-32.67,0H546.5v-3h16.34Zm-32.68,0H513.83v-3h16.33Zm-32.67,0H481.16v-3h16.33Zm-32.67,0H448.49v-3h16.33Zm-32.67,0H415.81v-3h16.34Zm-32.67,0H383.15v-3h16.33Zm-32.67,0H350.48v-3h16.33Zm-32.67,0H317.8v-3h16.34Zm-32.67,0H285.13v-3h16.34Zm-32.67,0H252.46v-3H268.8Zm-32.67,0H219.79v-3h16.34Zm-32.67,0H187.12v-3h16.34Z" style="fill:#999"/><path d="M1052.89,679.07h-16.33v-3h16.33Zm-32.67,0h-16.33v-3h16.33Zm-32.67,0H971.22v-3h16.33Zm-32.67,0H938.55v-3h16.33Zm-32.67,0H905.88v-3h16.33Zm-32.67,0H873.21v-3h16.33Zm-32.67,0H840.53v-3h16.34Zm-32.67,0H807.86v-3H824.2Zm-32.67,0H775.19v-3h16.34Zm-32.67,0H742.52v-3h16.34Zm-32.67,0H709.85v-3h16.34Zm-32.67,0H677.18v-3h16.34Zm-32.67,0H644.51v-3h16.34Zm-32.68,0H611.84v-3h16.33Zm-32.66,0H579.17v-3h16.34Zm-32.67,0H546.5v-3h16.34Zm-32.68,0H513.83v-3h16.33Zm-32.67,0H481.16v-3h16.33Zm-32.67,0H448.49v-3h16.33Zm-32.67,0H415.81v-3h16.34Zm-32.67,0H383.15v-3h16.33Zm-32.67,0H350.48v-3h16.33Zm-32.67,0H317.8v-3h16.34Zm-32.67,0H285.13v-3h16.34Zm-32.67,0H252.46v-3H268.8Zm-32.67,0H219.79v-3h16.34Zm-32.67,0H187.12v-3h16.34Z" style="fill:#999"/><path d="M1052.89,838.34h-16.33v-3h16.33Zm-32.67,0h-16.33v-3h16.33Zm-32.67,0H971.22v-3h16.33Zm-32.67,0H938.55v-3h16.33Zm-32.67,0H905.88v-3h16.33Zm-32.67,0H873.21v-3h16.33Zm-32.67,0H840.53v-3h16.34Zm-32.67,0H807.86v-3H824.2Zm-32.67,0H775.19v-3h16.34Zm-32.67,0H742.52v-3h16.34Zm-32.67,0H709.85v-3h16.34Zm-32.67,0H677.18v-3h16.34Zm-32.67,0H644.51v-3h16.34Zm-32.68,0H611.84v-3h16.33Zm-32.66,0H579.17v-3h16.34Zm-32.67,0H546.5v-3h16.34Zm-32.68,0H513.83v-3h16.33Zm-32.67,0H481.16v-3h16.33Zm-32.67,0H448.49v-3h16.33Zm-32.67,0H415.81v-3h16.34Zm-32.67,0H383.15v-3h16.33Zm-32.67,0H350.48v-3h16.33Zm-32.67,0H317.8v-3h16.34Zm-32.67,0H285.13v-3h16.34Zm-32.67,0H252.46v-3H268.8Zm-32.67,0H219.79v-3h16.34Zm-32.67,0H187.12v-3h16.34Z" style="fill:#999"/><path d="M1052.89,997.62h-16.33v-3h16.33Zm-32.67,0h-16.33v-3h16.33Zm-32.67,0H971.22v-3h16.33Zm-32.67,0H938.55v-3h16.33Zm-32.67,0H905.88v-3h16.33Zm-32.67,0H873.21v-3h16.33Zm-32.67,0H840.53v-3h16.34Zm-32.67,0H807.86v-3H824.2Zm-32.67,0H775.19v-3h16.34Zm-32.67,0H742.52v-3h16.34Zm-32.67,0H709.85v-3h16.34Zm-32.67,0H677.18v-3h16.34Zm-32.67,0H644.51v-3h16.34Zm-32.68,0H611.84v-3h16.33Zm-32.66,0H579.17v-3h16.34Zm-32.67,0H546.5v-3h16.34Zm-32.68,0H513.83v-3h16.33Zm-32.67,0H481.16v-3h16.33Zm-32.67,0H448.49v-3h16.33Zm-32.67,0H415.81v-3h16.34Zm-32.67,0H383.15v-3h16.33Zm-32.67,0H350.48v-3h16.33Zm-32.67,0H317.8v-3h16.34Zm-32.67,0H285.13v-3h16.34Zm-32.67,0H252.46v-3H268.8Zm-32.67,0H219.79v-3h16.34Zm-32.67,0H187.12v-3h16.34Z" style="fill:#999"/><path d="M1200,231.47v-95C1200,61.11,1117.52,0,1015.77,0H227C125.23,0,42.74,61.11,42.74,136.49v95Z" style="fill:#a5d1d8"/></g></g></svg>